<svg width="366" height="285" viewBox="0 0 366 285" fill="none" xmlns="http://www.w3.org/2000/svg">
<path d="M214.803 75.3695L218.077 79.1481L225.634 72.5993L222.36 68.8206L214.803 75.3695ZM90.2686 24.6134L91.4226 29.4784L91.6372 29.4275L91.8465 29.3579L90.2686 24.6134ZM11.9202 106.481L16.6661 108.055L16.7011 107.949L16.7313 107.842L11.9202 106.481ZM78.7198 244.483L75.9219 248.626L76.0074 248.684L76.0951 248.738L78.7198 244.483ZM250.956 265.116L252.599 269.838L252.873 269.743L253.134 269.617L250.956 265.116ZM357.825 114.449L362.802 114.933L362.811 114.834L362.817 114.735L357.825 114.449ZM265.202 8.07648L265.449 3.08261L265.449 3.0826L265.202 8.07648ZM179.82 34.5508C177.956 36.5885 178.098 39.7512 180.135 41.6148C182.173 43.4784 185.336 43.3373 187.199 41.2996L179.82 34.5508ZM219.087 72.5621L217.288 67.8972L210.687 70.4435L215.291 75.8156L219.087 72.5621ZM221.171 166.609L218.389 162.454L213.088 166.005L217.803 170.304L221.171 166.609ZM255.995 198.358L252.626 202.053L255.189 204.389L258.275 202.809L255.995 198.358ZM290.313 169.738L294.343 172.698L294.558 172.405L294.728 172.085L290.313 169.738ZM304.052 140.651L308.621 142.681L308.708 142.485L308.778 142.283L304.052 140.651ZM304.052 95.1658L308.694 93.3086L308.527 92.8914L308.289 92.5106L304.052 95.1658ZM276.857 67.8767L279.227 63.4739L279.093 63.4021L278.956 63.3386L276.857 67.8767ZM144.118 84.7413L148.757 86.6058L150.45 82.3936L146.421 80.303L144.118 84.7413ZM144.118 166.609L146.953 170.727L150.326 168.405L148.714 164.641L144.118 166.609ZM96.0611 199.69L92.4041 203.099L95.3445 206.253L98.8961 203.808L96.0611 199.69ZM59.1883 117.13L64.0651 118.233L59.1883 117.13ZM179.731 211.869L182.616 207.785L178.491 204.87L175.618 209.026L179.731 211.869ZM164.838 226.512L161.964 222.42L151.53 229.75L164.165 231.466L164.838 226.512ZM200.451 226.512L201.413 231.418L212.877 229.17L203.337 222.428L200.451 226.512ZM97.7843 204.421L101.185 200.755L93.8532 193.955L90.4528 197.62L97.7843 204.421ZM78.5786 230.972L73.5821 231.159L73.5885 231.332L73.607 231.505L78.5786 230.972ZM99.9463 249.609L99.0871 254.534L99.2783 254.568L99.4715 254.586L99.9463 249.609ZM131.026 246.281L128.819 241.795L128.819 241.795L131.026 246.281ZM166.115 231.844L170.315 229.13L164.887 220.731L160.688 223.445L166.115 231.844ZM201.799 221.494L197.646 218.71L192.077 227.016L196.23 229.801L201.799 221.494ZM228.8 245.615L226.016 249.768L226.123 249.84L226.234 249.907L228.8 245.615ZM250.815 254.268L251.058 249.274L251.047 249.273L251.036 249.273L250.815 254.268ZM275.42 248.943L272.237 245.087L272.157 245.153L272.08 245.222L275.42 248.943ZM284.485 230.307L289.484 230.406L289.493 229.977L289.428 229.552L284.485 230.307ZM271.535 211.67L268.282 215.467L268.372 215.544L268.465 215.617L271.535 211.67ZM263.133 197.889L259.336 194.636L252.83 202.231L256.627 205.484L263.133 197.889ZM178.294 121.15L173.646 122.991L173.703 123.137L173.77 123.279L178.294 121.15ZM193.187 115.825L197.646 113.562L197.572 113.417L197.489 113.278L193.187 115.825ZM222.36 68.8206C182.968 23.3636 135.278 4.37564 88.6907 19.8689L91.8465 29.3579C133.32 15.5652 177.051 31.8045 214.803 75.3695L222.36 68.8206ZM89.1146 19.7484C44.7049 30.283 17.7843 67.3993 7.10921 105.119L16.7313 107.842C26.7766 72.3476 51.6565 38.9115 91.4226 29.4784L89.1146 19.7484ZM7.17436 104.907C-5.41289 142.867 8.42208 203.05 75.9219 248.626L81.5178 240.339C16.9267 196.726 5.77363 140.904 16.6661 108.055L7.17436 104.907ZM76.0951 248.738C148.938 293.665 209.513 284.828 252.599 269.838L249.313 260.393C208.224 274.689 150.953 283.158 81.3446 240.227L76.0951 248.738ZM253.134 269.617C320.752 236.908 356.158 183.224 362.802 114.933L352.849 113.965C346.542 178.791 313.253 229.427 248.779 260.615L253.134 269.617ZM362.817 114.735C366.207 55.6239 322.078 5.88793 265.449 3.08261L264.954 13.0704C315.811 15.5897 355.918 60.3672 352.833 114.162L362.817 114.735ZM265.449 3.0826C253.674 2.49939 237.274 5.0221 221.511 10.2155C205.797 15.3928 189.951 23.4737 179.82 34.5508L187.199 41.2996C195.671 32.0365 209.663 24.6479 224.64 19.7133C239.569 14.7948 254.714 12.5632 264.954 13.0704L265.449 3.0826ZM215.291 75.8156C230.28 93.3075 235.456 112.153 234.642 128.039C233.819 144.122 226.935 156.731 218.389 162.454L223.954 170.763C235.812 162.821 243.692 146.851 244.629 128.55C245.576 110.052 239.507 88.7067 222.884 69.3086L215.291 75.8156ZM217.803 170.304L252.626 202.053L259.364 194.664L224.54 162.914L217.803 170.304ZM258.275 202.809C265.912 198.897 272.029 195.408 277.713 190.817C283.424 186.205 288.516 180.631 294.343 172.698L286.283 166.778C280.79 174.256 276.274 179.125 271.43 183.037C266.561 186.97 261.179 190.085 253.716 193.908L258.275 202.809ZM294.728 172.085C300.687 160.871 302.877 155.61 308.621 142.681L299.483 138.621C293.703 151.628 291.66 156.549 285.898 167.392L294.728 172.085ZM308.778 142.283C314.831 124.76 315.249 109.693 308.694 93.3086L299.41 97.023C304.924 110.807 304.735 123.359 299.326 139.018L308.778 142.283ZM308.289 92.5106C304.63 86.6728 301.528 81.5347 297.272 76.8643C292.918 72.0855 287.501 67.9274 279.227 63.4739L274.487 72.2794C282.027 76.3377 286.463 79.8493 289.881 83.5996C293.397 87.4583 295.985 91.7088 299.815 97.821L308.289 92.5106ZM278.956 63.3386C267.592 58.0826 258.007 56.8229 248.093 58.2365C238.513 59.6024 228.748 63.4763 217.288 67.8972L220.887 77.2271C232.737 72.6557 241.304 69.3057 249.505 68.1364C257.371 67.0148 265.015 67.9084 274.758 72.4147L278.956 63.3386ZM139.479 82.8767C133.686 97.2896 129.496 109.369 128.959 122.631C128.418 135.975 131.579 150.027 139.522 168.577L148.714 164.641C141.106 146.871 138.491 134.362 138.951 123.036C139.413 111.63 142.998 100.935 148.757 86.6058L139.479 82.8767ZM141.283 162.49L93.226 195.571L98.8961 203.808L146.953 170.727L141.283 162.49ZM99.7181 196.28C76.1516 171.004 66.601 155.375 63.1619 144.365C59.8435 133.741 62.0466 127.157 64.0651 118.233L54.3115 116.027C52.4099 124.435 49.3621 133.726 53.6167 147.346C57.7503 160.58 68.5962 177.565 92.4041 203.099L99.7181 196.28ZM64.0651 118.233C67.4101 103.445 76.1944 90.7227 89.0838 84.3848C101.838 78.1134 119.562 77.6346 141.815 89.1795L146.421 80.303C122.054 67.6618 100.922 67.4201 84.6712 75.411C68.5555 83.3354 58.1852 98.901 54.3115 116.027L64.0651 118.233ZM175.618 209.026C171.972 214.299 169.55 217.091 161.964 222.42L167.712 230.603C176.261 224.597 179.524 220.962 183.844 214.712L175.618 209.026ZM164.838 226.512C164.165 231.466 164.166 231.466 164.167 231.466C164.167 231.466 164.168 231.467 164.169 231.467C164.17 231.467 164.172 231.467 164.174 231.467C164.178 231.468 164.183 231.469 164.19 231.469C164.203 231.471 164.221 231.474 164.244 231.477C164.29 231.483 164.357 231.491 164.442 231.502C164.612 231.524 164.859 231.555 165.174 231.593C165.806 231.669 166.715 231.773 167.849 231.888C170.114 232.118 173.286 232.393 176.929 232.577C184.12 232.939 193.515 232.967 201.413 231.418L199.489 221.605C192.816 222.914 184.405 222.941 177.432 222.589C173.993 222.416 170.994 222.156 168.858 221.939C167.792 221.831 166.943 221.734 166.367 221.665C166.079 221.63 165.859 221.602 165.714 221.584C165.642 221.574 165.588 221.567 165.554 221.563C165.537 221.561 165.525 221.559 165.517 221.558C165.514 221.558 165.512 221.557 165.51 221.557C165.51 221.557 165.51 221.557 165.51 221.557C165.51 221.557 165.51 221.557 165.51 221.557C165.511 221.557 165.511 221.557 164.838 226.512ZM203.337 222.428L182.616 207.785L176.845 215.952L197.565 230.595L203.337 222.428ZM90.4528 197.62C84.3863 204.16 80.031 209.563 77.2797 214.802C74.4276 220.234 73.3651 225.356 73.5821 231.159L83.5751 230.785C83.4208 226.658 84.1245 223.277 86.1333 219.451C88.243 215.434 91.8433 210.826 97.7843 204.421L90.4528 197.62ZM73.607 231.505C74.2581 237.586 75.7544 243.049 80.2805 247.177C84.5728 251.092 90.8545 253.098 99.0871 254.534L100.805 244.683C92.858 243.297 89.0626 241.652 87.0195 239.789C85.2101 238.138 84.1126 235.694 83.5502 230.44L73.607 231.505ZM99.4715 254.586C110.789 255.666 120.361 257.102 133.234 250.767L128.819 241.795C118.83 246.71 112.034 245.739 100.421 244.631L99.4715 254.586ZM133.234 250.767C145.759 244.604 152.793 240.453 166.115 231.844L160.688 223.445C147.588 231.91 140.899 235.85 128.819 241.795L133.234 250.767ZM196.23 229.801L226.016 249.768L231.584 241.462L201.799 221.494L196.23 229.801ZM226.234 249.907C234.879 255.076 240.872 258.834 250.595 259.263L251.036 249.273C244.205 248.971 240.293 246.661 231.366 241.324L226.234 249.907ZM250.572 259.262C262.263 259.831 271.698 259.004 278.76 252.664L272.08 245.222C268.267 248.645 262.605 249.836 251.058 249.274L250.572 259.262ZM278.603 252.799C282.47 249.607 285.236 246.242 287.009 242.392C288.777 238.554 289.401 234.574 289.484 230.406L279.486 230.207C279.421 233.499 278.94 236.008 277.927 238.208C276.919 240.396 275.226 242.62 272.237 245.087L278.603 252.799ZM289.428 229.552C287.593 217.536 280.392 212.226 274.605 207.724L268.465 215.617C274.274 220.136 278.359 223.31 279.543 231.061L289.428 229.552ZM274.788 207.873L263.133 197.889L256.627 205.484L268.282 215.467L274.788 207.873ZM175.67 100.255C172.176 102.41 170.771 106.094 170.687 109.946C170.605 113.648 171.681 118.03 173.646 122.991L182.943 119.309C181.188 114.876 180.645 111.936 180.684 110.166C180.703 109.322 180.851 108.925 180.911 108.799C180.939 108.741 180.952 108.732 180.939 108.747C180.925 108.762 180.913 108.77 180.919 108.766L175.67 100.255ZM173.77 123.279C175.914 127.835 178.902 132.551 181.972 136.124C183.496 137.899 185.185 139.561 186.943 140.77C188.516 141.852 191.081 143.223 194.031 142.718L192.343 132.861C193.35 132.689 193.576 133.195 192.61 132.53C191.828 131.993 190.776 131.027 189.557 129.608C187.138 126.792 184.623 122.855 182.819 119.021L173.77 123.279ZM194.031 142.718C198.042 142.031 199.579 138.358 200.125 136.637C200.818 134.45 201.071 131.856 201.064 129.341C201.05 124.341 199.993 118.187 197.646 113.562L188.728 118.088C190.167 120.923 191.053 125.419 191.064 129.369C191.069 131.33 190.855 132.787 190.592 133.615C190.182 134.909 190.275 133.216 192.343 132.861L194.031 142.718ZM197.489 113.278C194.315 107.917 190.97 103.932 187.598 101.55C184.34 99.2476 179.802 97.7058 175.67 100.255L180.919 108.766C180.024 109.318 179.944 108.386 181.828 109.717C183.599 110.968 186.082 113.639 188.885 118.373L197.489 113.278Z" fill="black"/>
</svg>
