<svg width="231" height="120" viewBox="0 0 231 120" fill="none" xmlns="http://www.w3.org/2000/svg">
<path d="M20.9391 72.8718C20.9391 70.4624 19.0341 66.5042 18.3327 64.001C16.6021 57.8251 16.2643 50.8444 17.5926 44.6231C19.3734 36.2818 25.8033 26.8171 35.1617 23.781C45.1721 20.5334 57.5171 18.5404 67.2753 23.1495C74.1656 26.4039 76.6268 32.3294 79.4708 38.2499C81.594 42.6698 83.8646 47.787 84.0722 52.6039C84.1765 55.0216 85.7527 59.0343 84.5227 61.5034C83.9766 62.5997 83.2794 64.1791 83.0425 65.2354C82.932 65.7288 87.1661 66.4636 87.8049 66.6708C88.6201 66.9353 89.3613 67.39 90.1539 67.7043C95.1367 69.6801 99.2027 73.5599 103.443 76.489C112.779 82.9374 118.824 96.0628 118.824 106.46C118.824 110.776 115.67 111.628 111.488 111.628C106.086 111.628 105.478 109.13 101.738 106.46C99.4699 104.841 98.0779 101.461 96.686 99.2258C95.2139 96.8617 93.4462 94.7277 91.2479 92.7664C89.6656 91.3548 85.7833 87.4799 83.3643 87.3406C78.5329 87.0625 73.8691 86.8239 69.013 86.8239C63.1244 86.8239 57.2358 86.8239 51.3473 86.8239C49.1947 86.8239 41.8285 85.786 40.085 87.0822C39.2404 87.7102 37.3791 87.6161 36.3201 87.8861C35.0238 88.2165 33.8116 90.4388 33.2311 91.4746C31.8447 93.9482 30.9859 96.2399 29.7558 98.709C28.2064 101.819 27.0926 105.218 25.5727 108.269C24.3934 110.636 22.3131 114.643 19.4911 115.762C14.3929 117.783 5.48005 119.761 2.53329 114.211C1.41374 112.103 2.40458 107.622 2.40458 105.312C2.40458 103.785 2.97774 101.893 4.01347 100.661C5.16398 99.2926 5.10059 97.1298 6.20157 95.8669C8.29062 93.4706 10.9252 90.1932 12.5406 87.599C13.9178 85.3873 15.6134 82.9023 17.3351 81.0249C19.3585 78.8185 19.756 75.7469 21.5183 73.3885" stroke="black" stroke-width="3" stroke-linecap="round"/>
<path d="M148.364 68.2203C145.183 68.7364 144.757 72.6348 143.73 74.8232C142.747 76.9185 140.975 79.6283 140.834 81.8854C140.458 87.9202 139.676 93.7777 139.676 99.8853C139.676 104.266 139.872 110.138 144.889 112.258C147.327 113.289 151.839 112.958 151.839 109.818C151.839 108.266 152.779 106.532 153.03 104.967C153.26 103.527 153.363 101.668 153.866 100.23C154.881 97.333 154.869 94.331 156.022 91.359C157.093 88.5997 158.609 86.0796 160.237 83.4643C163.519 78.1943 171.969 78.5552 178.354 78.5552C187.552 78.5552 196.561 78.0016 205.705 77.5217C206.874 77.4604 207.318 76.4928 208.472 77.6366C209.778 78.931 209.518 80.684 210.049 82.2012C211.43 86.144 209.126 92.0142 207.314 95.6078C205.576 99.0535 206.294 101.819 208.891 104.392C210.9 106.384 218.311 109.395 220.893 107.091C223.803 104.495 224.958 101.503 226.814 98.1915C229.438 93.509 228.873 87.0581 228.873 82.0002C228.873 77.0783 228.423 73.6048 226.556 69.0242C225.127 65.5166 222.066 61.6959 218.447 59.7228C215.668 58.2076 213.27 56.2076 210.339 54.8998C207.529 53.6463 203.467 53.5215 205.415 50.3927C207.164 47.584 209.18 45.391 209.18 41.8664C209.18 36.7481 209.675 31.4253 207.893 26.4789C206.72 23.2219 204.477 21.2153 202.198 18.8425C200.303 16.8706 197.06 15.6622 194.41 14.7373C191.292 13.6484 187.56 11.3014 184.274 10.8617C182.597 10.6373 181.228 9.31146 179.641 9.31146C176.074 9.31146 172.192 8.79471 168.443 8.79471C165.979 8.79471 163.739 8.7464 161.364 9.31146C159.569 9.73855 157.762 10.1582 156.022 10.7469C154.484 11.2675 153.662 13.2337 152.418 14.1918C149.157 16.7043 147.205 22.1279 147.205 25.9621C147.205 32.4957 145.646 38.8545 149.072 44.9668C150.12 46.837 151.504 50.0857 153.834 50.6797C155.939 51.2162 159.241 53.7664 159.369 55.8185C159.513 58.1402 155.923 59.8869 153.802 60.4692C149.997 61.5137 148.348 64.6444 147.205 67.7036" stroke="black" stroke-width="3" stroke-linecap="round"/>
<path d="M35.0117 43.0843C35.3343 43.6958 34.897 44.1793 35.8993 44.0741C36.4013 44.0214 36.3992 43.0349 35.8993 42.8863" stroke="black" stroke-width="3" stroke-linecap="round"/>
<path d="M58.7539 39.1243C58.7991 39.089 58.5565 40.1142 59.5306 40.1142C60.2331 40.1142 60.723 39.1243 59.8634 39.1243" stroke="black" stroke-width="3" stroke-linecap="round"/>
<path d="M46.9941 43.0846C47.1308 44.5473 47.4379 45.9608 47.4379 47.44" stroke="black" stroke-width="3" stroke-linecap="round"/>
<path d="M35.4551 54.9623C38.6065 57.2973 42.829 56.744 46.7227 56.744C50.1855 56.744 53.6679 56.9938 57.0041 56.0401C58.5405 55.601 59.9482 55.3169 61.3682 54.6103C62.4485 54.0728 63.856 53.9746 64.746 53.1805C65.309 52.6782 65.4885 51.4635 66.0774 51.2008" stroke="black" stroke-width="3" stroke-linecap="round"/>
<path d="M166.598 27.2446C166.166 27.5874 165.808 28.4324 166.82 28.4324C167.374 28.4324 167.649 27.5005 167.313 27.2006C166.07 26.0912 164.356 28.4324 166.598 28.4324" stroke="black" stroke-width="3" stroke-linecap="round"/>
<path d="M189.232 24.6704C187.906 24.6704 189.291 26.2902 190.169 25.5063C191.018 24.7488 189.011 23.7287 189.011 25.2643" stroke="black" stroke-width="3" stroke-linecap="round"/>
<path d="M177.344 26.1418C178.161 26.552 178.34 28.5484 178.34 29.332C178.34 30.349 178.539 31.2236 178.539 32.1864" stroke="black" stroke-width="3" stroke-linecap="round"/>
<path d="M169.971 38.231C172.817 38.7265 175.609 37.9088 178.429 37.7076C181.525 37.4866 184.873 37.2751 187.883 36.552C188.935 36.2993 190.102 36.2883 191.182 36.1371C191.863 36.0419 192.289 35.9373 192.289 36.5915C192.289 37.556 191.462 38.8546 190.496 39.2977C188.779 40.0856 186.976 40.7828 185.071 41.1546C183.468 41.4674 181.662 41.6089 180.023 41.6089C178.906 41.6089 177.417 41.8475 176.336 41.5102C175.281 41.1807 173.991 40.8879 173.159 40.1867C172.215 39.3911 171.283 39.4389 170.17 38.9422" stroke="black" stroke-width="3" stroke-linecap="round"/>
<path d="M155.051 12.0926C153.114 11.7897 151.184 11.6389 149.227 11.4889C147.809 11.3802 146.398 11.1506 144.979 11.0343C144.4 10.9868 143.82 10.9922 143.24 10.9922C142.918 10.9922 142.968 11.0596 143.15 11.2711C143.422 11.5874 143.724 11.8806 143.994 12.1996C144.5 12.7977 144.843 13.4372 145.287 14.0717C147.059 16.6057 149.178 18.9467 151.034 21.4303C151.119 21.5436 151.481 22.2378 151.736 22.0913C152.358 21.735 152.728 20.6904 153.03 20.1389C154.413 17.6102 155.69 15.0335 157.141 12.532C158.527 10.1429 160.022 7.6946 161.946 5.61273C162.785 4.70457 163.688 3.84796 164.533 2.94591C164.747 2.71633 165.057 2.51651 165.226 2.25819C165.249 2.22365 165.374 1.97409 165.432 2.0022C165.797 2.17973 166.068 2.8163 166.267 3.12166C166.631 3.67927 167.007 4.22577 167.385 4.77601C168.282 6.0847 169.01 7.40683 169.663 8.82973C170.107 9.7969 170.487 10.8146 170.871 11.8022C170.965 12.045 171.048 12.3125 171.119 12.5663C171.226 12.9468 170.323 12.8406 170.087 12.8453C168.845 12.8699 167.606 12.7719 166.374 12.6389C164.479 12.4345 162.59 12.2769 160.695 12.1079C158.432 11.9059 156.119 11.8863 153.843 11.8863C153.249 11.8863 152.48 11.9751 151.921 11.7831C151.504 11.64 150.919 11.6799 150.482 11.6799C149.552 11.6799 148.623 11.6799 147.694 11.6799C147.39 11.6799 147.03 11.6348 146.726 11.6799C146.519 11.7107 146.57 12.1803 146.572 12.2836C146.583 12.9543 146.774 13.4064 147.124 13.9762C147.649 14.8294 148.131 15.7209 148.824 16.4787C149.258 16.9523 149.716 17.392 150.083 17.9076C150.254 18.1472 150.43 18.7373 150.696 18.263C151.485 16.8542 152.341 15.4874 153.184 14.1022C153.484 13.6088 153.77 13.0409 154.28 12.6962C154.4 12.6152 155.458 11.8321 155.115 12.3486C154.481 13.3038 153.433 13.4661 152.272 13.5979C151.6 13.6742 150.617 13.8295 149.929 13.6591C149.653 13.5906 149.411 13.4194 149.167 13.2923C149.002 13.2062 148.858 13.055 148.919 13.3152C149.087 14.0403 149.413 14.8376 149.814 15.493C150.039 15.8618 151.19 14.7382 151.338 14.5798C151.441 14.4693 151.447 14.3598 151.522 14.2513C151.801 13.8474 152.532 13.5862 152.996 13.4298C154.707 12.8524 156.489 12.2361 158.053 11.3743C158.543 11.1043 158.872 10.8502 159.291 10.5108C159.757 10.1325 160.411 9.86251 160.927 9.53273C161.932 8.89048 162.829 8.14001 163.847 7.50778C164.937 6.83168 165.69 5.92038 166.425 4.95558C166.455 4.91622 166.584 4.8202 166.451 4.8486C165.899 4.9669 165.366 5.19849 164.824 5.35293C164.22 5.525 163.641 5.66684 163.188 6.07121C162.608 6.58885 162.682 7.64386 162.682 8.31012C162.682 8.74755 162.731 8.92476 163.282 8.92907C164.11 8.93555 164.938 8.92907 165.766 8.92907C166.104 8.92907 166.619 8.83692 166.926 9.00166C167.106 9.09781 167.302 9.18405 167.505 9.23472C167.652 9.27168 168.002 9.24864 168.096 9.37991C168.243 9.58605 166.649 9.74414 166.618 9.74669C165.131 9.87052 163.626 9.8231 162.134 9.8231C161.855 9.8231 161.089 9.69383 160.832 9.92244C160.243 10.4484 162.858 10.6362 162.901 10.6407C164.745 10.8355 166.496 11.0146 168.352 10.9922C168.786 10.987 168.978 10.9659 168.892 10.5337C168.741 9.7769 168.27 9.08467 167.839 8.43238C167.405 7.77704 167.009 7.08477 166.537 6.45328" stroke="#FF3B3B" stroke-width="3" stroke-linecap="round"/>
<path d="M152.249 18.9036C151.957 19.2427 151.455 20.0911 150.984 20.3012C150.969 20.3077 150.966 20.1884 150.967 20.1816C150.974 20.0572 151.032 19.9218 151.118 19.8453" stroke="#FF3B3B" stroke-width="3" stroke-linecap="round"/>
</svg>
